<svg viewBox="30.776422764227675 -5.684341886080802e-14 386.7479674796747 544.9999999999997" xmlns="http://www.w3.org/2000/svg" xmlns:xlink="http://www.w3.org/1999/xlink" xmlns:blush="http://design.blush" overflow="visible"><defs><path d="M148.640872,414.988848 L27.7458936,419.210594 C18.7158011,419.525932 11.1398329,412.461227 10.8244951,403.431135 L0.375077719,104.198971 C0.0597399402,95.168878 7.12444451,87.5929099 16.154537,87.2775721 L44.8578599,0.650926334 L340.15489,0.650926334 L340.15489,545.324194 L210.432361,545.324194 C170.3946,458.393575 149.797437,414.94846 148.640872,414.988848 Z" id="mastercompositionphone-path-1"/></defs><g id="Master/Composition/Phone" stroke="none" stroke-width="1" fill="none" fill-rule="evenodd" blush:has-customizable-skin="true" blush:i="0"><g id="Background" opacity=".2" transform="translate(46.000000, -1.000000)" blush:i="0.0"><circle id="Oval" fill="#FF9B21" cx="154.851" cy="198.267" r="154.851" blush:i="0.0.0"/><circle id="Oval" fill="#2B44FF" cx="249.109" cy="518.069" r="27.604" blush:i="0.0.1"/><polygon id="Polygon" fill="#2B44FF" points="129.277228 0.98019802 162.277228 33.980198 129.277228 66.980198 96.2772277 33.980198" blush:i="0.0.2"/><polygon id="Polygon" fill="#FF9B21" points="37.7029703 465.554455 53.8613861 481.712871 37.7029703 497.871287 21.5445545 481.712871" blush:i="0.0.3"/><polygon id="Polygon" fill="#2026A2" points="271.326733 43.4158416 279.405941 51.4950495 271.326733 59.5742574 263.247525 51.4950495" blush:i="0.0.4"/></g><g id="Phone" transform="translate(31.830542, 74.998197)" blush:i="0.1"><path d="M23.6844272,4.19999901 L143.520295,0.0152382774 C157.065434,-0.457768391 168.429386,10.1392885 168.902393,23.6844272 L179.313777,321.827451 C179.786784,335.37259 169.189727,346.736542 155.644588,347.209549 L35.8087197,351.394309 C22.2635809,351.867316 10.8996288,341.270259 10.4266221,327.72512 L0.0152382774,29.5820966 C-0.457768391,16.0369579 10.1392885,4.67300568 23.6844272,4.19999901 Z" id="base" fill="#F2F2F2" blush:i="0.1.0"/><path d="M42.5752937,13.6798635 C42.7508502,18.7071431 46.8976668,22.6594379 51.8955462,22.627117 L52.1640861,22.6215571 L116.370557,20.3794177 C121.397837,20.2038613 125.350132,16.0570446 125.317811,11.0591652 L125.312251,10.7906253 L125.217065,8.06485602 L144.064084,7.40670361 C153.094176,7.09136583 160.670144,14.1560704 160.985482,23.1861629 L171.4349,322.418327 C171.750237,331.44842 164.685533,339.024388 155.65544,339.339726 L34.760462,343.561471 C25.7303695,343.876809 18.1544014,336.812104 17.8390636,327.782012 L7.38964619,28.5498477 C7.07430841,19.5197552 14.139013,11.9437871 23.1691055,11.6284493 L42.4801077,10.9540942 L42.5752937,13.6798635 Z" id="Screen" fill="#240E6A" blush:i="0.1.1"/></g><g id="Character" transform="translate(294.500000, 349.500000) scale(-1, 1) translate(-294.500000, -349.500000) translate(191.000000, 200.000000)" blush:i="0.2"><g id="Head/Front" transform="translate(74.572859, 52.187723) rotate(-27.000000) translate(-74.572859, -52.187723) translate(28.790680, 17.177822) scale(0.6732647058823529 0.6732692307692307)" blush:width="91.564" blush:height="70.02" blush:component="Head/Front" blush:i="0.2.0"><g id="Head/Front/Airy" stroke="none" stroke-width="1" fill="none" fill-rule="evenodd" blush:i="0.2.0.0"><g id="Head" transform="translate(54.000000, 31.000000)" fill="#915b3c" blush:skin="500" blush:i="0.2.0.0.0"><path d="M38.1433414,9.13393292 C43.9381521,19.9350547 43.249578,47.3329958 35.7603014,49.2634576 C32.773664,50.0333035 26.4113241,48.1475566 19.935865,44.2446031 L24,73 L0,73 L8.26160177,34.4893378 C3.65406109,29.0807313 0.535660132,22.452516 1.05677633,15.0254539 C2.55833022,-6.37502057 32.3485306,-1.66718886 38.1433414,9.13393292 Z" id="SKIN" blush:i="0.2.0.0.0.0"/></g><path d="M78.46395,27.6852568 C75.3008195,27.1665378 66.7839511,26.8099042 65.2132884,26.8101344 C64.2095609,26.8101344 63.1218259,27.0394482 62.5273474,26.1178184 C62.0405177,25.3631089 62.2188613,24.0866873 62.0735698,23.2108742 C61.9048664,22.1934668 61.6652388,21.1891827 61.4228569,20.1874312 C60.7331241,17.3368945 59.6901472,14.6249591 58.2308058,12.0787928 C55.4925323,7.30188179 51.4810649,3.56010629 46.4167508,1.38277606 C40.824292,-1.02133542 34.4959652,-1.57182675 28.4804855,-1.08418951 C22.0431327,-0.562477519 16.2158664,1.56258942 10.137955,3.56240864 C4.34603603,5.46806184 -1.7203989,6.21816672 -7.77811175,5.28755777 C-13.8815008,4.35004179 -18.4931849,1.0420286 -23.6412768,-2.09768297 C-28.9114778,-5.31199061 -34.9343023,-7.4142643 -41.1646205,-6.93100152 C-46.9804104,-6.47974137 -52.3405866,-4.0783927 -57.1496651,-0.870531642 C-61.6491098,2.13080883 -65.3617312,5.74181098 -67.4577843,10.8240133 C-69.7126711,16.2909379 -69.7106053,22.291777 -66.0025745,27.1232537 C-60.627938,34.1265349 -50.6501101,35.9375616 -42.3489869,35.7575181 C-37.5474828,35.6536822 -32.8318224,34.7771784 -28.298637,33.1828026 C-22.2530892,31.0563543 -17.0287938,27.4522592 -11.3729852,24.5280473 C-8.71871903,23.1558481 -5.97516638,22.0288489 -3.09940537,21.2170411 C-0.308799399,20.4289475 2.43980288,20.0674789 4.96645123,21.7532579 C7.63930914,23.5366564 10.0344377,25.2885128 13.0922147,26.4049212 C16.0255874,27.4759733 19.132713,28.0750442 22.2579713,28.0508696 C28.338637,28.0039017 34.3327705,26.1092997 40.2385356,24.8402457 C45.0544999,23.8055706 50.2074119,22.7743491 55.1172534,23.7689633 C57.1660236,24.1840766 60.1586146,25.0410104 60.8986141,27.1702216 C48.4441749,29.4274433 43.5527072,44.8301494 47.0638027,56.1372093 C48.958789,62.2400423 60.3498117,69.3741897 64.7787912,66.1658382 C67.5846772,64.1332552 65.881216,61.4648419 64.7787912,59.7033156 C62.6675892,56.3299158 61.9452634,51.9966672 65.8518364,49.6480423 C69.2215424,47.6224367 72.7645562,52.4327123 72.8315785,52.4274169 C73.7577255,52.3544325 81.7604403,47.8285457 87.2741651,41.224129 C92.7134751,41.5465656 93.5386971,37.9600245 92.2398964,35.026908 C90.9410957,32.0937915 82.8343998,28.4024381 78.46395,27.6852568 Z" id="hair" fill="#191847" blush:i="0.2.0.0.1"/></g></g><g id="Bottom/Standing" transform="translate(4.712871, 137.346535) scale(0.6732666666666667 0.6732677824267782)" blush:width="201.98" blush:height="160.911" blush:component="Bottom/Standing" blush:i="0.2.1"><g id="Bottom/Standing/Sprint" stroke="none" stroke-width="1" fill="none" fill-rule="evenodd" blush:i="0.2.1.0"><path d="M207.469522,-9.65840194 C188.34471,5.93412613 195.620321,142.644251 194.343793,144.365431 C193.776447,145.1304 163.468239,151.639612 103.419169,163.893066 L106.01112,174.474064 C176.253239,170.987921 213.421261,166.637951 217.515185,161.424153 C223.376511,153.959489 230.620797,112.212202 239.248044,36.1822931 L207.469522,-9.65840194 Z" id="SKIN" fill="#915b3c" transform="translate(171.333606, 82.407831) rotate(-55.000000) translate(-171.333606, -82.407831)" blush:skin="500" blush:i="0.2.1.0.0"/><path d="M207.469522,-9.65840194 C188.34471,5.93412613 195.620321,142.644251 194.343793,144.365431 C193.776447,145.1304 163.468239,151.639612 103.419169,163.893066 L106.01112,174.474064 C176.253239,170.987921 213.421261,166.637951 217.515185,161.424153 C223.376511,153.959489 230.620797,112.212202 239.248044,36.1822931 L207.469522,-9.65840194 Z" id="shadow" fill-opacity=".1" fill="#000" transform="translate(171.333606, 82.407831) rotate(-55.000000) translate(-171.333606, -82.407831)" blush:i="0.2.1.0.1"/><path d="M113.540088,152.75781 L118.105527,169.799273 C170.465638,175.811529 204.983252,168.36956 217.132934,156.81223 C225.232723,149.107343 232.495664,107.473517 238.921759,31.9107522 L204.926407,-16.6396419 C159.401042,17.7063231 186.537309,130.140454 185.373895,132.713083 C184.210481,135.285712 156.597106,137.319958 113.540088,152.75781 Z" id="Pant" fill="#2F3676" transform="translate(176.230924, 77.646617) rotate(-55.000000) translate(-176.230924, -77.646617)" blush:i="0.2.1.0.2"/><g id="Right-[shoe]" transform="translate(219.664877, 196.035191) rotate(20.000000) translate(-219.664877, -196.035191) translate(190.664877, 185.535191)" fill="#E4E4E4" blush:i="0.2.1.0.3"><path d="M1.67813181,6.40192425 C0.559377268,9.38841089 4.54747351e-13,11.6229931 4.54747351e-13,13.1056708 C4.54747351e-13,14.908957 0.300414205,17.5404001 0.901242614,21 C2.99318117,21 21.7937852,21 57.3030548,21 C58.768738,16.1545073 57.9226607,13.5385816 54.7648228,13.1522232 C51.606985,12.7658647 48.9837155,12.4170139 46.8950143,12.1056708 L20.6799926,0.41888346 C20.1755635,0.194006431 19.584344,0.4206282 19.359467,0.925057349 C19.35562,0.933686736 19.3518954,0.94237021 19.3482945,0.951105155 L17.6632131,5.03869504 L17.6632131,5.03869504 C14.7398812,6.40265216 12.3643706,7.08463071 10.5366811,7.08463071 C9.05172687,7.08463071 7.00099246,6.48490544 4.38447792,5.28545491 L4.38448339,5.28544297 C3.38038273,4.82514778 2.19325534,5.26598921 1.73296014,6.27008987 C1.71312074,6.31336808 1.69483298,6.35734088 1.67813181,6.40192425 Z" id="shoe" blush:i="0.2.1.0.3.0"/></g><polygon id="SKIN" fill="#915b3c" points="130 0 78.2540376 124.226909 27.3958106 229.25029 39.3949124 229.25029 170.673688 0" blush:skin="500" blush:i="0.2.1.0.4"/><g id="Left-[shoe]" transform="translate(25.000000, 218.000000)" fill="#E4E4E4" blush:i="0.2.1.0.5"><path d="M1.67813181,6.40192425 C0.559377268,9.38841089 0,11.6229931 0,13.1056708 C0,14.908957 0.300414205,17.5404001 0.901242614,21 C2.99318117,21 21.7937852,21 57.3030548,21 C58.768738,16.1545073 57.9226607,13.5385816 54.7648228,13.1522232 C51.606985,12.7658647 48.9837155,12.4170139 46.8950143,12.1056708 L20.6799926,0.41888346 C20.1755635,0.194006431 19.584344,0.4206282 19.359467,0.925057349 C19.35562,0.933686736 19.3518954,0.94237021 19.3482945,0.951105155 L17.6632131,5.03869504 L17.6632131,5.03869504 C14.7398812,6.40265216 12.3643706,7.08463071 10.5366811,7.08463071 C9.05172687,7.08463071 7.00099246,6.48490544 4.38447792,5.28545491 L4.38448339,5.28544297 C3.38038273,4.82514778 2.19325534,5.26598921 1.73296014,6.27008987 C1.71312074,6.31336808 1.69483298,6.35734088 1.67813181,6.40192425 Z" id="shoe" blush:i="0.2.1.0.5.0"/></g><path d="M31.9885488,207.432889 L58.6506859,212.432889 C79.2657755,182.124875 165.540767,57.851839 175,2.84217094e-14 L115.644073,2.84217094e-14 C84.0548806,41.821022 51.6389867,176.623522 31.9885488,207.432889 Z" id="Pant" fill="#5C63AB" blush:i="0.2.1.0.6"/></g></g><g id="Body" transform="translate(99.164335, 132.426606) rotate(-14.000000) translate(-99.164335, -132.426606) translate(12.986117, 69.476111) scale(0.673265625 0.6732673796791444)" blush:width="172.356" blush:height="125.901" blush:component="Body" blush:i="0.2.2"><g id="Body/Hoodie" stroke="none" stroke-width="1" fill="none" fill-rule="evenodd" blush:i="0.2.2.0"><path d="M68.3079281,93.0198914 L89.2053198,93.1020711 C76.3021447,134.755739 69.3363474,156.856914 68.3079281,159.405597 C65.9939846,165.140133 70.8906002,173.873732 72.9845874,178.567103 C66.1645409,181.61887 66.8912241,170.316929 58.2879189,174.319492 C50.4352209,177.972846 44.4616931,184.59248 35.3890352,178.994371 C34.2736052,178.306117 33.0512757,175.714714 36.0045784,173.68967 C43.3623323,168.644547 53.9653015,159.814672 55.3979297,156.908251 C57.3515741,152.944826 61.6549068,131.648706 68.3079281,93.0198914 L68.3079281,93.0198914 Z M190.781205,92.2114854 L222.679476,115.635084 C231.330944,117.969562 238.558965,120.874047 244.363541,124.34854 C245.734683,125.597945 247.391836,128.128197 241.70538,127.690906 C236.018925,127.253615 230.01796,127.049392 229.233339,128.988954 C228.448719,130.928516 231.889854,133.24802 230.303794,135.864997 C229.246421,137.609648 224.250967,133.234999 215.31743,122.74105 L183.729774,109.642447 L190.781205,92.2114854 Z" id="SKIN" fill="#915b3c" blush:skin="500" blush:i="0.2.2.0.0"/><path d="M122.731734,9.58031077 L131.216685,7.34914009 C165.5935,32.1628362 183.361709,84.0563407 224.996623,108.72736 L216.58973,121.240539 C147.889238,118.771641 125.383314,55.5469019 122.731734,9.58031077 Z" id="Coat-Back" fill="#E87613" transform="translate(173.864178, 64.294840) rotate(5.000000) translate(-173.864178, -64.294840)" blush:i="0.2.2.0.1"/><path d="M90,114 C124.671756,114 150.175573,114 166.511451,114 C170.007634,114 169.348845,108.951637 168.84345,106.404206 C163.010588,77.0037663 140.241304,45.3115155 140.241304,3.4607303 L118.1718,0 C99.917485,29.3584068 93.6048263,65.5045499 90,114 Z" id="Shirt" fill="#DDE3E9" blush:i="0.2.2.0.2"/><path d="M116.510031,-7.10542736e-15 C117.255457,-6.66133815e-15 117.93832,0.0466286213 118.558619,0.139885864 L125.471587,0.534739944 C145.293986,67.7151944 150.760885,112.536948 141.872285,135 L141.872285,135 L81.6511486,135.001552 C78.0833907,143.320741 74.6693386,150.320224 71.4089926,156 L71.4089926,156 L55,156 C53.4556773,106.066899 65.3273884,63.686084 90.6151334,28.8575562 C87.4099906,27.9369844 84.8714148,25.7879767 83,22.4111902 C74.933557,7.85607578 77.8467271,-0.157592785 86.4671964,-2.7917309 C95.0876658,-5.42586901 102.775319,-2.04281037e-14 116.510031,-7.10542736e-15 Z" id="Coat-Front" fill="#FF9B21" blush:i="0.2.2.0.3"/><path d="M104,135 L81.6515228,135.000679 C85.8135041,125.295819 90.1846546,113.79505 94.7649742,100.498371 C96.6589721,116.343356 99.7372842,127.844605 104,135 Z" id="Shade" fill-opacity=".1" fill="#000" blush:i="0.2.2.0.4"/></g></g></g><g id="illustration" transform="translate(38.845110, -0.650926)" blush:i="0.3"><mask id="mastercompositionphone-mask-2" fill="#fff" blush:i="0.3.0"><use xlink:href="#mastercompositionphone-path-1" blush:i="0.3.0.0"/></mask><g id="Screen" blush:i="0.3.1"/><g id="" mask="url(#mastercompositionphone-mask-2)" blush:i="0.3.2"><g transform="translate(163.987678, 118.803809) rotate(44.000000) translate(-163.987678, -118.803809) translate(85.677617, 59.000000) scale(1.1516176470588235 1.1500769230769232)" blush:width="156.62" blush:height="119.608" id="Head/Front" blush:component="Head/Front" blush:i="0.3.2.0"><g id="Head/Front/Short Beard" stroke="none" stroke-width="1" fill="none" fill-rule="evenodd" blush:i="0.3.2.0.0"><g id="Head" transform="translate(54.000000, 31.000000)" fill="#915b3c" blush:skin="500" blush:i="0.3.2.0.0.0"><path d="M38.1433414,9.13393292 C43.9381521,19.9350547 43.249578,47.3329958 35.7603014,49.2634576 C32.773664,50.0333035 26.4113241,48.1475566 19.935865,44.2446031 L24,73 L0,73 L8.26160177,34.4893378 C3.65406109,29.0807313 0.535660132,22.452516 1.05677633,15.0254539 C2.55833022,-6.37502057 32.3485306,-1.66718886 38.1433414,9.13393292 Z" id="SKIN" blush:i="0.3.2.0.0.0.0"/></g><path d="M79.1320584,29.6205713 C85.8659611,30.1981637 91.8790132,32.2515132 93.5831606,33.4709469 C93.5831606,39.8461712 92.3478701,41.7376815 81.7968056,41.5709519 C79.2045191,42.9399877 77.211635,45.2973585 75.1359806,48.3879237 C76.0537047,61.185356 78.4839205,67.5846937 82.4257914,67.5846937 C88.3385979,67.5846937 93.355194,63.8310443 95.9495915,63.8310443 C97.8408192,63.8310443 97.4185661,66.1977405 96.1649615,67.9524776 C95.1306973,69.4001921 90.0939174,70.7956158 90.0939174,73.0400595 C90.0939174,75.2845031 94.0733913,73.5481008 94.0733913,74.8792364 C94.0733913,77.0810973 94.7727779,81.2209894 90.9512241,81.2209894 C87.0836843,81.2209894 75.9947625,79.8115837 74.0944216,74.0714721 C72.8680535,70.367142 72.0750985,62.6912593 71.7155566,51.0438241 C71.4812891,51.0143652 71.2423222,51 71,51 C67.6862915,51 65,53.6862915 65,57 C65,58.6822183 65.6922919,60.2027431 66.807515,61.292214 C65.4191964,63.2518162 63.8632894,65.2988831 62.0803863,67.4111902 C55.3824054,63.3926741 50.4121226,51.6289713 56.9604861,40.3282783 C58.7704744,34.7922446 62.8680346,31.8352408 67.7073518,30.4622091 C71.6274481,28.8224203 75.6968791,28.6375327 79.1320584,29.6205713 Z" id="Hair" fill="#191847" blush:i="0.3.2.0.0.1"/></g></g></g><g id="" mask="url(#mastercompositionphone-mask-2)" blush:i="0.3.3"><g transform="translate(28.693069, 365.730659) rotate(12.000000) translate(-28.693069, -365.730659) translate(-144.000000, 228.047491) scale(345.386 275.366)" blush:width="345.386" blush:height="275.366" id="Bottom/Standing" blush:component="Bottom/Standing" blush:i="0.3.3.0"><g blush:i="0.3.3.0.0"/></g></g><g id="" mask="url(#mastercompositionphone-mask-2)" blush:i="0.3.4"><g transform="translate(76.428931, 237.169427) rotate(33.000000) translate(-76.428931, -237.169427) translate(-70.978244, 129.637579) scale(1.1516171875 1.1500748663101603)" blush:width="294.814" blush:height="215.064" id="Body" blush:component="Body" blush:i="0.3.4.0"><g id="Body/Pointing Up" stroke="none" stroke-width="1" fill="none" fill-rule="evenodd" blush:i="0.3.4.0.0"><path d="M188.106855,69.1681252 L220.005126,92.5917238 C228.656594,94.9262021 235.884616,97.8306872 241.689192,101.305179 C243.060333,102.554584 244.717486,105.084837 239.031031,104.647546 C233.344575,104.210255 227.34361,104.006032 226.55899,105.945594 C225.774369,107.885156 229.215504,110.204659 227.629445,112.821636 C226.572072,114.566288 221.576617,110.191639 212.64308,99.6976902 L181.055424,86.5990869 L188.106855,69.1681252 Z M250.438302,-16.9769837 C246.666871,-12.6987465 242.892301,-8.02906778 243.969107,-6.23518449 C245.045914,-4.44130119 248.969279,-5.79360164 250.104775,-2.95198204 C250.861773,-1.05756897 244.361683,0.299249329 230.604506,1.11847287 L201.133571,18.4625605 L191.456243,2.34082269 L229.360019,-9.03759567 C236.431,-14.5420411 243.100557,-18.5666331 249.36869,-21.1113719 C251.191683,-21.4545034 254.209733,-21.2552209 250.438302,-16.9769837 Z" id="SKIN" fill="#915b3c" blush:skin="500" blush:i="0.3.4.0.0.0"/><path d="M126.984936,15.649923 C152.146796,42.4399518 182.83581,59.9216266 224.690767,75.4277614 L215.396057,94.0136202 C172.211363,89.9419212 149.124049,86.6900124 131.024869,59.8586619 C126.482342,53.1245369 118.360034,29.953677 113.494175,17.9210142 L126.984936,15.649923 Z" id="Coat-Back" fill="#2026A2" transform="translate(169.092471, 54.831772) rotate(15.000000) translate(-169.092471, -54.831772)" blush:i="0.3.4.0.0.1"/><path d="M90,114 L167,114 C149.558211,60.8053811 140.648283,24.2959016 140.270216,4.47156148 C140.250941,3.46089747 138.384379,1.67996472 137.55857,1.91319372 C131.519523,3.61877223 125.057267,2.98104099 118.1718,0 C99.917485,29.3584068 93.6048263,65.5045499 90,114 Z" id="Shirt" fill="#F2F2F2" blush:i="0.3.4.0.0.2"/><path d="M223.922675,-9 L228,11.3734803 C196.786296,31.4485846 165.179799,46.9996172 137.484777,44.7906365 C149.512447,96.376906 148.958039,138.605966 122.407472,138.605966 L122.407472,138.605966 L81.3511268,138.605966 C74.8304314,94.783947 91.9680949,34.0236152 107.855955,3.37659428 C108.462665,2.20627687 109.75441,-3.65929509e-13 112.797001,-3.65929509e-13 L112.797001,-3.65929509e-13 L124.726763,-3.65929509e-13 C124.732077,0.0159997287 124.73739,0.0319994436 124.742703,0.047999144 C146.814341,0.228141895 182.62406,4.25863713 223.922675,-9 Z" id="Coat-Front" fill="#1F28CF" blush:i="0.3.4.0.0.3"/></g></g></g></g></g></svg>